<svg xmlns="http://www.w3.org/2000/svg" viewBox="0 0 323 98"><path d="M15.52,17.06h9V70.48h-9Z"/><path d="M43.09,68.47a18.34,18.34,0,0,1-7.3-7,19.76,19.76,0,0,1-2.63-10.19,19.54,19.54,0,0,1,2.63-10.15,18.4,18.4,0,0,1,7.3-7A21.84,21.84,0,0,1,53.61,31.6a22,22,0,0,1,10.58,2.52,18.43,18.43,0,0,1,7.31,7,19.63,19.63,0,0,1,2.63,10.15A19.86,19.86,0,0,1,71.5,61.45a18.37,18.37,0,0,1-7.31,7A22,22,0,0,1,53.61,71,21.84,21.84,0,0,1,43.09,68.47ZM61.81,60a11.92,11.92,0,0,0,3.24-8.71,11.92,11.92,0,0,0-3.24-8.71,11,11,0,0,0-8.2-3.31,10.84,10.84,0,0,0-8.17,3.31,12,12,0,0,0-3.21,8.71A12,12,0,0,0,45.44,60a10.84,10.84,0,0,0,8.17,3.31A11,11,0,0,0,61.81,60Z"/><path d="M120.93,32V64.65Q120.93,85,100.19,85a38.28,38.28,0,0,1-10.51-1.41,22.18,22.18,0,0,1-8.21-4.07l4-6.76a19.36,19.36,0,0,0,6.37,3.34,25,25,0,0,0,7.82,1.26q6.33,0,9.28-2.88c2-1.92,3-4.84,3-8.78v-2a14.79,14.79,0,0,1-5.62,3.82A19.87,19.87,0,0,1,99,68.76a20.85,20.85,0,0,1-9.9-2.34,17.67,17.67,0,0,1-7-6.59,18.51,18.51,0,0,1-2.55-9.72,18.35,18.35,0,0,1,2.55-9.69,17.47,17.47,0,0,1,7-6.51A21.07,21.07,0,0,1,99,31.6,20.31,20.31,0,0,1,106.63,33a14.07,14.07,0,0,1,5.73,4.18V32Zm-12.14,26a10.36,10.36,0,0,0,3.28-8,10.18,10.18,0,0,0-3.28-7.85,13.25,13.25,0,0,0-16.84,0,10.18,10.18,0,0,0-3.28,7.85,10.36,10.36,0,0,0,3.28,8,13.11,13.11,0,0,0,16.84,0Z"/><path d="M139.5,68.47a18.37,18.37,0,0,1-7.31-7,19.86,19.86,0,0,1-2.63-10.19,19.63,19.63,0,0,1,2.63-10.15,18.43,18.43,0,0,1,7.31-7,23.34,23.34,0,0,1,21.1,0,18.49,18.49,0,0,1,7.31,7,19.63,19.63,0,0,1,2.62,10.15,19.85,19.85,0,0,1-2.62,10.19,18.43,18.43,0,0,1-7.31,7,23.34,23.34,0,0,1-21.1,0ZM158.22,60a11.92,11.92,0,0,0,3.24-8.71,11.92,11.92,0,0,0-3.24-8.71,11.79,11.79,0,0,0-16.38,0,12,12,0,0,0-3.2,8.71,12,12,0,0,0,3.2,8.71,11.79,11.79,0,0,0,16.38,0Z"/><path d="M177.16,69.3A5.73,5.73,0,0,1,175.43,65a5.84,5.84,0,1,1,1.73,4.29Z"/><path d="M198.76,69.76a22.73,22.73,0,0,1-7.13-3.09l3.45-6.84a22.48,22.48,0,0,0,6.23,2.77,25.7,25.7,0,0,0,7.17,1q8.06,0,8.06-4.24a2.83,2.83,0,0,0-2-2.81,35.45,35.45,0,0,0-6.59-1.51,53.8,53.8,0,0,1-7.74-1.66A11.83,11.83,0,0,1,195,50.14a9.12,9.12,0,0,1-2.2-6.51,10.23,10.23,0,0,1,4.57-8.75q4.58-3.27,12.35-3.28a35.64,35.64,0,0,1,7.92.9,22.14,22.14,0,0,1,6.48,2.42l-3.46,6.84a21.29,21.29,0,0,0-11-2.88,12.21,12.21,0,0,0-6,1.18,3.56,3.56,0,0,0-2.06,3.14,3.12,3.12,0,0,0,2.2,3.06,35,35,0,0,0,6.8,1.69,53.27,53.27,0,0,1,7.56,1.65,11.9,11.9,0,0,1,5.08,3.17,8.86,8.86,0,0,1,2.12,6.34,10,10,0,0,1-4.68,8.64Q216,71,207.9,71A34.2,34.2,0,0,1,198.76,69.76Z"/><path d="M268.38,32,251.89,70.48H242.6L226.12,32h9.36l12,28.51L259.74,32Z"/><path d="M311.08,32V64.65Q311.08,85,290.34,85a38.28,38.28,0,0,1-10.51-1.41,22.18,22.18,0,0,1-8.21-4.07l4-6.76A19.36,19.36,0,0,0,282,76.06a25,25,0,0,0,7.82,1.26q6.33,0,9.28-2.88c2-1.92,3-4.84,3-8.78v-2a14.79,14.79,0,0,1-5.62,3.82,19.87,19.87,0,0,1-7.27,1.3,20.85,20.85,0,0,1-9.9-2.34,17.67,17.67,0,0,1-7-6.59,18.51,18.51,0,0,1-2.55-9.72,18.35,18.35,0,0,1,2.55-9.69,17.47,17.47,0,0,1,7-6.51,21.07,21.07,0,0,1,9.9-2.31A20.31,20.31,0,0,1,296.78,33a14.07,14.07,0,0,1,5.73,4.18V32Zm-12.14,26a10.36,10.36,0,0,0,3.28-8,10.18,10.18,0,0,0-3.28-7.85,13.25,13.25,0,0,0-16.84,0,10.18,10.18,0,0,0-3.28,7.85,10.36,10.36,0,0,0,3.28,8,13.11,13.11,0,0,0,16.84,0Z"/></svg>